<?xml version="1.0" standalone="no"?>
<!DOCTYPE svg PUBLIC "-//W3C//DTD SVG 1.1//EN" "http://www.w3.org/Graphics/SVG/1.1/DTD/svg11.dtd">
<svg width="100" height="100" version="1.1" xmlns="http://www.w3.org/2000/svg">
  <g fill="none" stroke="#FFF" stroke-width="3">
    <path d="M 15,5 L 85,5 Q 95,5 95,15 L 95,85 Q 95,95 85,95 L 15,95 Q 5,95 5,85 L 5,15 Q 5,5 15,5 Z" stroke-width="5" />
    <path d="
      M 55,60
      L 25,60
      Q 20,60 20,55
      L 20,45
      Q 20,40 25,40
      L 75,40
      Q 80,40 80,45
      L 80,55
      Q 80,60 75,60
    " />
    <path d="
      M 60,73
      L 60,55
      L 76,66
    " />
    <rect x="30" y="49" width="8" height="2" />
    <rect x="45" y="49" width="25" height="2" opacity=".5" />
  </g>
</svg>