<?xml version="1.0" standalone="no"?>
<!DOCTYPE svg PUBLIC "-//W3C//DTD SVG 1.1//EN" "http://www.w3.org/Graphics/SVG/1.1/DTD/svg11.dtd">
<svg width="100" height="100" version="1.1" xmlns="http://www.w3.org/2000/svg">
  <g fill="none" stroke="#FFF" stroke-width="3">
    <path d="M 15,5 L 85,5 Q 95,5 95,15 L 95,85 Q 95,95 85,95 L 15,95 Q 5,95 5,85 L 5,15 Q 5,5 15,5 Z" stroke-width="5" />
    <rect x="20" y="24" width="15" height="2" opacity=".5" />
    <rect x="45" y="23" width="35" height="3" fill="#FFF" />
    <rect x="20" y="39" width="15" height="2" opacity=".5" />
    <rect x="45" y="38" width="35" height="3" fill="#FFF" />
    <rect x="20" y="54" width="15" height="2" opacity=".5" />
    <rect x="45" y="53" width="35" height="3" fill="#FFF" />
    <rect x="45" y="62" width="25" height="3" fill="#FFF" />

    <rect x="45" y="75" width="20" height="6" fill="#FFF" />
  </g>
</svg>